<svg width="24" height="24" viewBox="0 0 24 24" fill="none" xmlns="http://www.w3.org/2000/svg">
<path d="M11.5 14.097L5.91065 19.6863C5.70152 19.8954 5.43536 20 5.11217 20C4.78897 20 4.52281 19.8954 4.31369 19.6863C4.10456 19.4772 4 19.211 4 18.8878C4 18.5646 4.10456 18.2985 4.31369 18.0894L9.90304 12.5L4.31369 6.91065C4.10456 6.70152 4 6.43536 4 6.11217C4 5.78897 4.10456 5.52281 4.31369 5.31369C4.52281 5.10456 4.78897 5 5.11217 5C5.43536 5 5.70152 5.10456 5.91065 5.31369L11.5 10.903L17.0894 5.31369C17.2985 5.10456 17.5646 5 17.8878 5C18.211 5 18.4772 5.10456 18.6863 5.31369C18.8954 5.52281 19 5.78897 19 6.11217C19 6.43536 18.8954 6.70152 18.6863 6.91065L13.097 12.5L18.6863 18.0894C18.8954 18.2985 19 18.5646 19 18.8878C19 19.211 18.8954 19.4772 18.6863 19.6863C18.4772 19.8954 18.211 20 17.8878 20C17.5646 20 17.2985 19.8954 17.0894 19.6863L11.5 14.097Z" fill="white"/>
</svg>
