<svg width="32" height="32" viewBox="0 0 32 32" fill="none" xmlns="http://www.w3.org/2000/svg">
<path d="M21.9998 4C26.0505 4 29.3332 7.33333 29.3332 12C29.3332 21.3333 19.3332 26.6667 15.9998 28.6667C13.3625 27.0853 6.5545 23.4173 3.82517 17.3333H10.0878L11.3332 15.2587L15.3332 21.9253L18.0878 17.3333H22.6665V14.6667H16.5785L15.3332 16.7413L11.3332 10.0747L8.5785 14.6667H2.9465C2.76007 13.79 2.66622 12.8962 2.6665 12C2.6665 7.33333 5.99984 4 9.99984 4C12.4798 4 14.6665 5.33333 15.9998 6.66667C17.3332 5.33333 19.5198 4 21.9998 4Z" fill="white"/>
</svg>
